:SAMPLES-PER-SECOND 30
:FULLY-SPECIFIED
:DEGREES
274
root  66.2437 37.4739 -21.6845 6.30379 3.74385 -2.71857
RightUpLeg  -34.3951 -10.4023 3.24395
RightLeg  25.0033 -18.3091 -0.127161
RightFoot  1.12552 0.6748 -6.09491
RightToes  0.00048216 0.542163 -0.142577
Spine  36.1218 -2.3911 15.5722
Spine1  5.98646 -0.443694 -0.867251
HEad  0.594135 -3.58965 -4.74928
LeftShoulder1  11.2361 -17.793 -45.9995
LeftArm  -10.2281 -16.6954 -22.9971
LeftForeArm  21.615 -13.7529 -5.6953
LeftHand  -0.25398 0.0180481 5.50724
RightShoulder  5.76734 11.5703 32.3137
RightArm  -6.29946 14.979 30.5406
RightForeArm  4.81862 9.53952 7.84623
RightHand  -1.95482 6.29527 -19.6381
LeftUpLeg  -28.6562 4.20222 -1.29943
LeftLeg  134.854 55.9486 141.939
LeftFoot  11.1424 -18.629 78.544
LeftToes  1.06248e-005 4.65856e-005 -8.18499e-006
275
root  66.045 37.1257 -21.4762 7.35324 3.72729 -3.94684
RightUpLeg  -36.9026 -11.9863 5.78188
RightLeg  27.8836 -16.7028 -0.182224
RightFoot  -0.446305 0.611032 -6.42678
RightToes  0.00048216 0.542163 -0.142577
Spine  39.5018 -2.49074 16.9241
Spine1  6.54308 -0.583704 0.661602
HEad  -4.42186 -4.20164 -4.92146
LeftShoulder1  11.0203 -17.9893 -44.6462
LeftArm  -11.1885 -21.892 -23.9444
LeftForeArm  21.6244 -13.8499 -5.63078
LeftHand  -0.25398 0.0180481 5.50724
RightShoulder  5.33794 11.9075 28.6321
RightArm  -8.59843 21.7121 32.6298
RightForeArm  7.38169 5.69812 7.58902
RightHand  -1.94369 6.37662 -19.3998
LeftUpLeg  -34.563 7.15171 -0.678177
LeftLeg  119.138 51.669 127.386
LeftFoot  14.3028 -15.232 60.3187
LeftToes  1.06248e-005 4.65856e-005 -8.18499e-006
276
root  65.7696 36.9796 -21.2971 8.73854 4.13737 -4.28903
RightUpLeg  -38.7858 -13.0726 7.26868
RightLeg  28.9552 -16.0401 0.0239003
RightFoot  -1.19784 0.602933 -6.86826
RightToes  0.00048216 0.542163 -0.142577
Spine  42.7754 -2.62991 16.8497
Spine1  7.19362 -1.00727 1.8274
HEad  -9.45249 -4.64095 -4.70707
LeftShoulder1  10.6576 -18.3276 -42.3896
LeftArm  -13.1942 -27.2411 -24.6242
LeftForeArm  22.5003 -13.1003 -5.59844
LeftHand  -0.25398 0.0180481 5.50724
RightShoulder  4.90177 11.9828 25.5471
RightArm  -10.1453 29.4999 34.3971
RightForeArm  9.15909 1.82551 6.93113
RightHand  -1.84341 6.11766 -18.8311
LeftUpLeg  -39.7753 9.40194 -1.73406
LeftLeg  109.204 47.9445 117.332
LeftFoot  12.2475 -8.54708 38.2928
LeftToes  1.06248e-005 4.65856e-005 -8.18499e-006
277
root  65.4366 37.1742 -21.1302 10.903 4.87782 -3.27637
RightUpLeg  -40.1388 -14.5092 7.74242
RightLeg  27.3084 -15.3306 0.86389
RightFoot  -0.921684 0.67912 -7.49732
RightToes  0.00048216 0.542163 -0.142577
Spine  45.3262 -2.41553 15.1694
Spine1  8.62046 -1.02654 2.24458
HEad  -14.2887 -5.3618 -3.96072
LeftShoulder1  10.6711 -19.4326 -40.2215
LeftArm  -16.4518 -33.0375 -24.6759
LeftForeArm  24.1837 -11.225 -5.5024
LeftHand  -0.25398 0.0180481 5.50724
RightShoulder  4.58397 11.8777 23.6064
RightArm  -12.3727 37.1001 34.14
RightForeArm  9.34732 -0.963628 6.35348
RightHand  -1.77696 5.93474 -18.457
LeftUpLeg  -43.4532 11.3428 -5.29643
LeftLeg  95.6532 48.6449 100.084
LeftFoot  4.06865 -1.81519 12.8627
LeftToes  1.06248e-005 4.65856e-005 -8.18499e-006
278
root  65.1522 37.4912 -20.9473 13.4691 5.53975 -1.78523
RightUpLeg  -41.5898 -16.4241 8.39431
RightLeg  24.7708 -13.7944 1.71395
RightFoot  -0.132599 0.817642 -8.3153
RightToes  0.00048216 0.542163 -0.142577
Spine  47.9828 -2.25182 13.0992
Spine1  9.74154 -0.757706 2.21781
HEad  -18.8936 -5.83767 -3.06208
LeftShoulder1  10.707 -20.7453 -37.9351
LeftArm  -19.8194 -38.829 -24.3876
LeftForeArm  25.1484 -8.93355 -5.09011
LeftHand  -0.25398 0.0180481 5.50724
RightShoulder  4.23938 11.6568 21.6608
RightArm  -15.2224 43.7547 32.9079
RightForeArm  7.4158 -2.46484 5.86912
RightHand  -1.7723 5.98094 -18.3392
LeftUpLeg  -45.0999 13.7601 -9.3251
LeftLeg  69.6737 48.5224 66.201
LeftFoot  -6.47536 0.214081 -1.21394
LeftToes  1.06248e-005 4.65856e-005 -8.18499e-006
279
root  64.9438 37.8184 -20.7395 16.1651 6.3242 -0.174164
RightUpLeg  -43.4638 -18.9302 9.6692
RightLeg  22.3788 -11.4584 2.2083
RightFoot  1.00568 1.02803 -9.40491
RightToes  0.00048216 0.542163 -0.142577
Spine  51.0717 -2.76184 11.3309
Spine1  10.015 -0.627083 1.37666
HEad  -23.2504 -5.87073 -1.97009
LeftShoulder1  10.402 -21.8829 -34.8203
LeftArm  -22.6276 -44.1206 -23.5429
LeftForeArm  24.6615 -6.67893 -4.42681
LeftHand  -0.25398 0.0180481 5.50724
RightShoulder  3.89413 11.4489 19.6074
RightArm  -18.3118 49.4424 31.4954
RightForeArm  4.75711 -3.10726 5.45152
RightHand  -1.73806 6.05305 -17.8889
LeftUpLeg  -46.3335 15.8645 -12.2836
LeftLeg  44.744 38.6511 33.6705
LeftFoot  -12.2267 0.0709267 -1.81216
LeftToes  1.06248e-005 4.65856e-005 -8.18499e-006
280
root  64.7678 38.0861 -20.5153 19.0867 7.26463 1.48134
RightUpLeg  -46.6771 -22.8619 12.8279
RightLeg  20.6965 -7.16372 2.3635
RightFoot  2.08408 1.27426 -10.6653
RightToes  0.00048216 0.542163 -0.142577
Spine  53.8901 -3.74207 9.96801
Spine1  9.9575 -0.595583 -0.255536
HEad  -27.2654 -5.86584 -0.516029
LeftShoulder1  9.86811 -23.0782 -30.9581
LeftArm  -25.72 -48.8573 -21.757
LeftForeArm  23.7902 -4.54835 -3.69639
LeftHand  -0.25398 0.0180481 5.50724
RightShoulder  3.58138 11.2692 17.6663
RightArm  -21.5587 54.2741 29.5597
RightForeArm  2.88247 -3.22605 5.05965
RightHand  -1.65628 6.07949 -17.0431
LeftUpLeg  -48.1627 16.9346 -14.7468
LeftLeg  31.9911 26.5131 16.9519
LeftFoot  -11.2767 0.0725845 -0.863959
LeftToes  1.06248e-005 4.65856e-005 -8.18499e-006
281
root  64.6307 38.2034 -20.2761 22.0957 7.76559 2.74887
RightUpLeg  -51.9354 -27.4308 18.8933
RightLeg  20.3814 -0.455539 1.97769
RightFoot  2.57603 1.44424 -11.6345
RightToes  0.00048216 0.542163 -0.142577
Spine  56.2516 -4.60454 8.95035
Spine1  9.72082 -0.278027 -2.16802
HEad  -30.5681 -5.95683 1.01009
LeftShoulder1  9.36515 -24.3085 -27.4101
LeftArm  -29.4175 -52.9805 -18.9244
LeftForeArm  23.2129 -2.93193 -2.96711
LeftHand  -0.25398 0.0180481 5.50724
RightShoulder  3.32186 11.2792 15.7413
RightArm  -25.2985 58.0838 26.4512
RightForeArm  1.96562 -3.13253 4.65861
RightHand  -1.61507 6.2439 -16.4136
LeftUpLeg  -50.5076 18.158 -17.5991
LeftLeg  24.5617 16.4611 8.33275
LeftFoot  -6.3004 0.130835 -1.98731
LeftToes  1.06248e-005 4.65856e-005 -8.18499e-006
282
root  64.5729 38.0926 -20.0024 24.8269 7.5379 3.18292
RightUpLeg  -57.1711 -28.7947 24.1725
RightLeg  21.5336 2.96784 0.911227
RightFoot  1.88339 1.45831 -12.4397
RightToes  0.00048216 0.542163 -0.142577
Spine  58.4424 -4.84568 8.22235
Spine1  9.53455 0.57552 -3.46625
HEad  -33.1266 -6.27163 1.91218
LeftShoulder1  9.23985 -25.5977 -25.3857
LeftArm  -33.7691 -56.5116 -14.9885
LeftForeArm  22.8986 -2.08593 -2.32418
LeftHand  -0.25398 0.0180481 5.50724
RightShoulder  3.07947 11.4596 13.6605
RightArm  -30.0025 60.9496 21.5985
RightForeArm  1.23064 -3.18675 4.26648
RightHand  -1.58133 6.42015 -15.8555
LeftUpLeg  -53.6382 20.0229 -20.847
LeftLeg  20.9833 8.5236 3.85853
LeftFoot  -0.732649 0.140176 -1.617
LeftToes  1.06248e-005 4.65856e-005 -8.18499e-006
283
root  64.5882 37.7619 -19.6914 27.2371 7.13255 2.9805
RightUpLeg  -60.1464 -26.3414 25.255
RightLeg  23.5214 -0.996767 -0.69356
RightFoot  -0.281246 1.34814 -13.8375
RightToes  0.00048216 0.542163 -0.142577
Spine  60.4935 -4.63617 7.75271
Spine1  9.2287 1.53985 -3.84437
HEad  -35.2966 -6.6225 2.13945
LeftShoulder1  9.39063 -26.9896 -24.3602
LeftArm  -38.8944 -59.2333 -9.93218
LeftForeArm  21.9387 -1.87082 -1.75588
LeftHand  -0.25398 0.0180481 5.50724
RightShoulder  2.86045 11.6698 11.7602
RightArm  -35.7912 63.3093 14.9621
RightForeArm  0.251975 -3.42933 3.9743
RightHand  -1.41411 6.17097 -14.5157
LeftUpLeg  -57.8399 21.0836 -23.4697
LeftLeg  22.0624 3.92649 2.08346
LeftFoot  2.06445 -0.29935 2.49992
LeftToes  1.06248e-005 4.65856e-005 -8.18499e-006
284
root  64.627 37.4021 -19.3752 29.6403 7.04095 2.61417
RightUpLeg  -63.6135 -24.6198 25.8413
RightLeg  26.7078 -1.35763 -0.972574
RightFoot  -1.86634 1.15157 -13.9575
RightToes  0.00048216 0.542163 -0.142577
Spine  62.0224 -4.84182 7.68044
Spine1  8.84612 1.77471 -4.50872
HEad  -37.6593 -6.14684 2.77627
LeftShoulder1  8.92092 -27.9042 -21.8276
LeftArm  -45.0377 -61.1435 -4.01414
LeftForeArm  19.0785 -1.85722 -1.0689
LeftHand  -0.25398 0.0180481 5.50724
RightShoulder  2.80295 12.261 10.5588
RightArm  -43.0581 65.6996 7.02907
RightForeArm  -1.16462 -3.64498 3.67031
RightHand  -1.17047 5.59068 -12.7175
LeftUpLeg  -61.9866 20.3898 -24.4721
LeftLeg  25.2725 3.24939 2.03572
LeftFoot  1.78116 -0.779755 6.70608
LeftToes  1.06248e-005 4.65856e-005 -8.18499e-006
285
root  64.641 37.0773 -19.0453 32.0712 7.18796 2.51486
RightUpLeg  -67.011 -23.0835 26.2319
RightLeg  29.6984 -2.07123 -1.51538
RightFoot  -3.3627 0.952916 -13.8987
RightToes  0.00048216 0.542163 -0.142577
Spine  63.565 -4.81573 7.71493
Spine1  7.42086 1.82773 -4.72985
HEad  -39.6238 -6.03789 3.62286
LeftShoulder1  8.59658 -29.2377 -19.5064
LeftArm  -51.5119 -62.411 2.17498
LeftForeArm  15.2942 -1.72475 -0.329135
LeftHand  -0.25398 0.0180481 5.50724
RightShoulder  2.76858 12.5312 9.9889
RightArm  -50.3822 67.2278 -1.13155
RightForeArm  -3.91351 -3.5584 3.56827
RightHand  -1.06504 5.34708 -11.8609
LeftUpLeg  -65.6498 19.0816 -24.759
LeftLeg  28.5219 3.95652 2.6777
LeftFoot  0.338915 -0.753843 7.31254
LeftToes  1.06248e-005 4.65856e-005 -8.18499e-006
286
root  64.6618 36.8141 -18.7041 34.2259 7.13918 2.29126
RightUpLeg  -69.7276 -21.5224 26.4166
RightLeg  32.1826 -2.68478 -2.06632
RightFoot  -4.43144 0.801147 -13.6832
RightToes  0.00048216 0.542163 -0.142577
Spine  65.226 -4.73486 7.72587
Spine1  5.96098 1.98097 -5.29945
HEad  -41.2164 -6.08611 4.56281
LeftShoulder1  8.3078 -30.2467 -17.7228
LeftArm  -58.2451 -63.6464 8.63903
LeftForeArm  11.7035 -1.60583 0.325589
LeftHand  -0.25398 0.0180481 5.50724
RightShoulder  2.74833 12.9187 9.39661
RightArm  -57.1359 67.9862 -8.07803
RightForeArm  -8.11282 -3.63224 3.40355
RightHand  -1.1088 5.78697 -11.8741
LeftUpLeg  -68.9347 18.6336 -25.3156
LeftLeg  31.0259 3.702 2.75407
LeftFoot  -0.485732 -0.595465 6.2964
LeftToes  1.06248e-005 4.65856e-005 -8.18499e-006
